<svg width="53" height="30" viewBox="0 0 53 30" fill="none" xmlns="http://www.w3.org/2000/svg">
<path d="M14.1123 29.552H19.7124V0.431458H14.1123V11.1837C13.2162 10.1084 11.245 9.07802 9.09456 9.07802C3.27046 9.07802 0 13.8269 0 19.5614C0 25.2959 3.27046 30 9.09456 30C11.245 30 13.2162 28.9696 14.1123 27.8944V29.552ZM14.1123 22.8319C13.485 24.2207 12.0066 25.1615 10.349 25.1615C7.34733 25.1615 5.5553 22.7423 5.5553 19.5614C5.5553 16.3358 7.34733 13.9165 10.349 13.9165C11.9618 13.9165 13.485 14.9021 14.1123 16.2462V22.8319Z" fill="#09F755"/>
<path d="M38.9015 2.72019C37.7084 1.14534 35.7041 0 33.1748 0C30.7886 0 28.832 0.90673 27.7821 2.24296V0.477226H21.8645V21.8093H27.7821V8.06513C28.1639 6.25167 29.5956 5.29722 31.1227 5.29722C33.1748 5.29722 34.1292 6.82434 34.1292 9.11503V21.8093H40.0945V8.06513C40.4763 6.25167 41.8603 5.29722 43.3874 5.29722C45.4395 5.29722 46.4416 6.82434 46.4416 9.11503V21.8093H52.3593V7.87424C52.3593 3.05425 49.7345 0 45.344 0C42.3375 0 40.2854 1.19307 38.9015 2.72019Z" fill="#09F755"/>
<path d="M39.4961 23.7084H21.9653V29.552H39.4961V23.7084Z" fill="#09F755"/>
</svg>
